# xmcd CD database file
# Copyright (C) 1996 Ti Kan
#
# Track frame offsets:
#  150
#  14682
#  32802
#  45597
#  61627
#  80170
#  99092
#  123572
#  144160
#  155725
#
# Disc length: 2233 seconds
#
# Revision: 1
# Processed by: cddbd v1.4b41PL1 Copyright (c) Steve Scherf et al.
# Submitted via: CDWizzard Release:4.12
#
DISCID=7c08b70a
DTITLE=Unknown - Romantic Saxophone
DYEAR=1900
DGENRE=
TTITLE0=Feelings
TTITLE1=Memory
TTITLE2=Love Me Tender
TTITLE3=Woman in Love
TTITLE4=Misty
TTITLE5=Stardust
TTITLE6=Midnight Blue
TTITLE7=Lady in Red
TTITLE8=Ebb Tide
TTITLE9=Smoke Gets in Your Eyes
EXTD=
EXTT0=
EXTT1=
EXTT2=
EXTT3=
EXTT4=
EXTT5=
EXTT6=
EXTT7=
EXTT8=
EXTT9=
PLAYORDER=
